<mxfile host="app.diagrams.net" agent="Mozilla/5.0 (X11; Linux x86_64; rv:109.0) Gecko/20100101 Firefox/115.0" version="24.7.14">
  <diagram name="Page-1" id="7KBO8obbckBk6eJqk0Hu">
    <mxGraphModel dx="1230" dy="661" grid="1" gridSize="10" guides="1" tooltips="1" connect="1" arrows="1" fold="1" page="1" pageScale="1" pageWidth="850" pageHeight="1100" math="0" shadow="0">
      <root>
        <mxCell id="0" />
        <mxCell id="1" parent="0" />
        <mxCell id="0HPqzP6ILTRECK0P_PnF-38" value="" style="endArrow=none;html=1;rounded=0;" edge="1" parent="1">
          <mxGeometry relative="1" as="geometry">
            <mxPoint x="140" y="150" as="sourcePoint" />
            <mxPoint x="370" y="150" as="targetPoint" />
          </mxGeometry>
        </mxCell>
        <mxCell id="0HPqzP6ILTRECK0P_PnF-39" value="Créer un compte" style="ellipse;whiteSpace=wrap;html=1;fillColor=#dae8fc;strokeColor=#6c8ebf;" vertex="1" parent="1">
          <mxGeometry x="360" y="120" width="140" height="70" as="geometry" />
        </mxCell>
        <mxCell id="0HPqzP6ILTRECK0P_PnF-40" value="S&#39;inscrire" style="ellipse;whiteSpace=wrap;html=1;fillColor=#e1d5e7;strokeColor=#9673a6;" vertex="1" parent="1">
          <mxGeometry x="800" y="120" width="140" height="70" as="geometry" />
        </mxCell>
        <mxCell id="0HPqzP6ILTRECK0P_PnF-46" value="Gérer un offre" style="ellipse;whiteSpace=wrap;html=1;fillColor=#dae8fc;strokeColor=#6c8ebf;" vertex="1" parent="1">
          <mxGeometry x="290" y="1680" width="140" height="70" as="geometry" />
        </mxCell>
        <mxCell id="0HPqzP6ILTRECK0P_PnF-48" value="Gérer des catégories de l&#39;app" style="ellipse;whiteSpace=wrap;html=1;fillColor=#dae8fc;strokeColor=#6c8ebf;" vertex="1" parent="1">
          <mxGeometry x="355" y="770" width="140" height="70" as="geometry" />
        </mxCell>
        <mxCell id="0HPqzP6ILTRECK0P_PnF-50" value="&amp;lt;&amp;lt;include&amp;gt;&amp;gt;" style="endArrow=open;endSize=12;dashed=1;html=1;rounded=0;exitX=1;exitY=0.5;exitDx=0;exitDy=0;" edge="1" parent="1" source="0HPqzP6ILTRECK0P_PnF-39" target="0HPqzP6ILTRECK0P_PnF-40">
          <mxGeometry width="160" relative="1" as="geometry">
            <mxPoint x="460" y="140" as="sourcePoint" />
            <mxPoint x="1095" y="333" as="targetPoint" />
          </mxGeometry>
        </mxCell>
        <mxCell id="0HPqzP6ILTRECK0P_PnF-52" value="Consulter ses produits/services" style="ellipse;whiteSpace=wrap;html=1;fillColor=#dae8fc;strokeColor=#6c8ebf;" vertex="1" parent="1">
          <mxGeometry x="360" y="330" width="140" height="70" as="geometry" />
        </mxCell>
        <mxCell id="0HPqzP6ILTRECK0P_PnF-53" value="Manager son profil" style="ellipse;whiteSpace=wrap;html=1;fillColor=#dae8fc;strokeColor=#6c8ebf;" vertex="1" parent="1">
          <mxGeometry x="360" y="240" width="140" height="70" as="geometry" />
        </mxCell>
        <mxCell id="0HPqzP6ILTRECK0P_PnF-54" value="gérer ses boutiques" style="ellipse;whiteSpace=wrap;html=1;fillColor=#dae8fc;strokeColor=#6c8ebf;" vertex="1" parent="1">
          <mxGeometry x="360" y="470" width="140" height="70" as="geometry" />
        </mxCell>
        <mxCell id="0HPqzP6ILTRECK0P_PnF-55" value="&lt;div&gt;Gérer&lt;/div&gt;&lt;div&gt; les comptes des profils d&#39;entreprise&lt;br&gt;&lt;/div&gt;" style="ellipse;whiteSpace=wrap;html=1;fillColor=#dae8fc;strokeColor=#6c8ebf;" vertex="1" parent="1">
          <mxGeometry x="355" y="675" width="140" height="70" as="geometry" />
        </mxCell>
        <mxCell id="0HPqzP6ILTRECK0P_PnF-56" value="S&#39;authentifier" style="ellipse;whiteSpace=wrap;html=1;fillColor=#cdeb8b;strokeColor=#36393d;" vertex="1" parent="1">
          <mxGeometry x="800" y="420" width="140" height="70" as="geometry" />
        </mxCell>
        <mxCell id="0HPqzP6ILTRECK0P_PnF-57" value="Gérer un admin" style="ellipse;whiteSpace=wrap;html=1;fillColor=#dae8fc;strokeColor=#6c8ebf;" vertex="1" parent="1">
          <mxGeometry x="355" y="920" width="140" height="70" as="geometry" />
        </mxCell>
        <mxCell id="0HPqzP6ILTRECK0P_PnF-58" value="" style="endArrow=none;html=1;rounded=0;" edge="1" parent="1">
          <mxGeometry relative="1" as="geometry">
            <mxPoint x="150" y="360" as="sourcePoint" />
            <mxPoint x="360" y="360" as="targetPoint" />
          </mxGeometry>
        </mxCell>
        <mxCell id="0HPqzP6ILTRECK0P_PnF-59" value="" style="endArrow=none;html=1;rounded=0;" edge="1" parent="1" target="0HPqzP6ILTRECK0P_PnF-53">
          <mxGeometry relative="1" as="geometry">
            <mxPoint x="150" y="339.47" as="sourcePoint" />
            <mxPoint x="360" y="339.47" as="targetPoint" />
          </mxGeometry>
        </mxCell>
        <mxCell id="0HPqzP6ILTRECK0P_PnF-60" value="" style="endArrow=none;html=1;rounded=0;" edge="1" parent="1" source="0HPqzP6ILTRECK0P_PnF-51" target="0HPqzP6ILTRECK0P_PnF-54">
          <mxGeometry relative="1" as="geometry">
            <mxPoint x="150" y="549.47" as="sourcePoint" />
            <mxPoint x="366" y="500" as="targetPoint" />
          </mxGeometry>
        </mxCell>
        <mxCell id="0HPqzP6ILTRECK0P_PnF-61" value="" style="endArrow=none;html=1;rounded=0;" edge="1" parent="1" source="0HPqzP6ILTRECK0P_PnF-36" target="0HPqzP6ILTRECK0P_PnF-55">
          <mxGeometry relative="1" as="geometry">
            <mxPoint x="160" y="675" as="sourcePoint" />
            <mxPoint x="376" y="625.53" as="targetPoint" />
          </mxGeometry>
        </mxCell>
        <mxCell id="0HPqzP6ILTRECK0P_PnF-62" value="" style="endArrow=none;html=1;rounded=0;entryX=0.02;entryY=0.406;entryDx=0;entryDy=0;entryPerimeter=0;" edge="1" parent="1" target="0HPqzP6ILTRECK0P_PnF-48">
          <mxGeometry relative="1" as="geometry">
            <mxPoint x="160" y="724.47" as="sourcePoint" />
            <mxPoint x="376" y="675" as="targetPoint" />
          </mxGeometry>
        </mxCell>
        <mxCell id="0HPqzP6ILTRECK0P_PnF-63" value="" style="endArrow=none;html=1;rounded=0;" edge="1" parent="1">
          <mxGeometry relative="1" as="geometry">
            <mxPoint x="160" y="954.5699999999999" as="sourcePoint" />
            <mxPoint x="355" y="954.5699999999999" as="targetPoint" />
          </mxGeometry>
        </mxCell>
        <mxCell id="0HPqzP6ILTRECK0P_PnF-69" value="gérer ses commandes" style="ellipse;whiteSpace=wrap;html=1;fillColor=#dae8fc;strokeColor=#6c8ebf;" vertex="1" parent="1">
          <mxGeometry x="355" y="560" width="140" height="70" as="geometry" />
        </mxCell>
        <mxCell id="0HPqzP6ILTRECK0P_PnF-70" value="" style="endArrow=none;html=1;rounded=0;entryX=0;entryY=0.5;entryDx=0;entryDy=0;" edge="1" parent="1" target="0HPqzP6ILTRECK0P_PnF-69">
          <mxGeometry relative="1" as="geometry">
            <mxPoint x="160" y="515" as="sourcePoint" />
            <mxPoint x="370" y="515" as="targetPoint" />
          </mxGeometry>
        </mxCell>
        <mxCell id="0HPqzP6ILTRECK0P_PnF-71" value="&amp;lt;&amp;lt;include&amp;gt;&amp;gt;" style="endArrow=open;endSize=12;dashed=1;html=1;rounded=0;exitX=1.012;exitY=0.674;exitDx=0;exitDy=0;entryX=0.088;entryY=0.28;entryDx=0;entryDy=0;exitPerimeter=0;entryPerimeter=0;" edge="1" parent="1" source="0HPqzP6ILTRECK0P_PnF-53" target="0HPqzP6ILTRECK0P_PnF-56">
          <mxGeometry width="160" relative="1" as="geometry">
            <mxPoint x="510" y="165" as="sourcePoint" />
            <mxPoint x="810" y="165" as="targetPoint" />
          </mxGeometry>
        </mxCell>
        <mxCell id="0HPqzP6ILTRECK0P_PnF-73" value="&amp;lt;&amp;lt;include&amp;gt;&amp;gt;" style="endArrow=open;endSize=12;dashed=1;html=1;rounded=0;exitX=0.986;exitY=0.635;exitDx=0;exitDy=0;exitPerimeter=0;entryX=-0.005;entryY=0.423;entryDx=0;entryDy=0;entryPerimeter=0;" edge="1" parent="1" source="0HPqzP6ILTRECK0P_PnF-52" target="0HPqzP6ILTRECK0P_PnF-56">
          <mxGeometry width="160" relative="1" as="geometry">
            <mxPoint x="495" y="360" as="sourcePoint" />
            <mxPoint x="813" y="503" as="targetPoint" />
          </mxGeometry>
        </mxCell>
        <mxCell id="0HPqzP6ILTRECK0P_PnF-74" value="&amp;lt;&amp;lt;include&amp;gt;&amp;gt;" style="endArrow=open;endSize=12;dashed=1;html=1;rounded=0;" edge="1" parent="1" source="0HPqzP6ILTRECK0P_PnF-54" target="0HPqzP6ILTRECK0P_PnF-56">
          <mxGeometry width="160" relative="1" as="geometry">
            <mxPoint x="508" y="384" as="sourcePoint" />
            <mxPoint x="816" y="451" as="targetPoint" />
          </mxGeometry>
        </mxCell>
        <mxCell id="0HPqzP6ILTRECK0P_PnF-75" value="&amp;lt;&amp;lt;include&amp;gt;&amp;gt;" style="endArrow=open;endSize=12;dashed=1;html=1;rounded=0;exitX=0.984;exitY=0.444;exitDx=0;exitDy=0;exitPerimeter=0;" edge="1" parent="1" source="0HPqzP6ILTRECK0P_PnF-69" target="0HPqzP6ILTRECK0P_PnF-56">
          <mxGeometry x="0.0011" width="160" relative="1" as="geometry">
            <mxPoint x="490" y="584" as="sourcePoint" />
            <mxPoint x="794" y="550" as="targetPoint" />
            <mxPoint as="offset" />
          </mxGeometry>
        </mxCell>
        <mxCell id="0HPqzP6ILTRECK0P_PnF-77" value="&amp;lt;&amp;lt;include&amp;gt;&amp;gt;" style="endArrow=open;endSize=12;dashed=1;html=1;rounded=0;exitX=1.003;exitY=0.44;exitDx=0;exitDy=0;exitPerimeter=0;" edge="1" parent="1" source="0HPqzP6ILTRECK0P_PnF-55" target="0HPqzP6ILTRECK0P_PnF-56">
          <mxGeometry x="0.0011" width="160" relative="1" as="geometry">
            <mxPoint x="503" y="601" as="sourcePoint" />
            <mxPoint x="823" y="485" as="targetPoint" />
            <mxPoint as="offset" />
          </mxGeometry>
        </mxCell>
        <mxCell id="0HPqzP6ILTRECK0P_PnF-78" value="&amp;lt;&amp;lt;include&amp;gt;&amp;gt;" style="endArrow=open;endSize=12;dashed=1;html=1;rounded=0;exitX=0.986;exitY=0.401;exitDx=0;exitDy=0;exitPerimeter=0;" edge="1" parent="1" source="0HPqzP6ILTRECK0P_PnF-48" target="0HPqzP6ILTRECK0P_PnF-56">
          <mxGeometry x="0.0011" width="160" relative="1" as="geometry">
            <mxPoint x="505" y="716" as="sourcePoint" />
            <mxPoint x="838" y="493" as="targetPoint" />
            <mxPoint as="offset" />
          </mxGeometry>
        </mxCell>
        <mxCell id="0HPqzP6ILTRECK0P_PnF-79" value="&amp;lt;&amp;lt;include&amp;gt;&amp;gt;" style="endArrow=open;endSize=12;dashed=1;html=1;rounded=0;exitX=0.975;exitY=0.39;exitDx=0;exitDy=0;exitPerimeter=0;" edge="1" parent="1" source="0HPqzP6ILTRECK0P_PnF-57" target="0HPqzP6ILTRECK0P_PnF-56">
          <mxGeometry x="0.0011" width="160" relative="1" as="geometry">
            <mxPoint x="515" y="726" as="sourcePoint" />
            <mxPoint x="848" y="503" as="targetPoint" />
            <mxPoint as="offset" />
          </mxGeometry>
        </mxCell>
        <mxCell id="0HPqzP6ILTRECK0P_PnF-80" value="Cas d&#39;utilisation global de l&#39;application annuaire" style="swimlane;whiteSpace=wrap;html=1;fillColor=#d5e8d4;strokeColor=#82b366;strokeWidth=2;startSize=30;" vertex="1" parent="1">
          <mxGeometry x="70" y="60" width="920" height="980" as="geometry" />
        </mxCell>
        <mxCell id="0HPqzP6ILTRECK0P_PnF-33" value="internaute" style="shape=umlActor;verticalLabelPosition=bottom;verticalAlign=top;html=1;outlineConnect=0;fillColor=#e1d5e7;strokeColor=#9673a6;" vertex="1" parent="0HPqzP6ILTRECK0P_PnF-80">
          <mxGeometry x="25" y="50" width="50" height="90" as="geometry" />
        </mxCell>
        <mxCell id="0HPqzP6ILTRECK0P_PnF-34" value="client" style="shape=umlActor;verticalLabelPosition=bottom;verticalAlign=top;html=1;outlineConnect=0;fillColor=#d5e8d4;strokeColor=#82b366;" vertex="1" parent="0HPqzP6ILTRECK0P_PnF-80">
          <mxGeometry x="20" y="230" width="60" height="100" as="geometry" />
        </mxCell>
        <mxCell id="0HPqzP6ILTRECK0P_PnF-67" value="" style="endArrow=block;endSize=16;endFill=0;html=1;rounded=0;strokeWidth=1;" edge="1" parent="0HPqzP6ILTRECK0P_PnF-80">
          <mxGeometry width="160" relative="1" as="geometry">
            <mxPoint x="49.57000000000001" y="220" as="sourcePoint" />
            <mxPoint x="49.57000000000001" y="170" as="targetPoint" />
          </mxGeometry>
        </mxCell>
        <mxCell id="0HPqzP6ILTRECK0P_PnF-51" value="BusinessOwner" style="shape=umlActor;verticalLabelPosition=bottom;verticalAlign=top;html=1;outlineConnect=0;fillColor=#ffe6cc;strokeColor=#d79b00;" vertex="1" parent="0HPqzP6ILTRECK0P_PnF-80">
          <mxGeometry x="25" y="400" width="50" height="90" as="geometry" />
        </mxCell>
        <mxCell id="0HPqzP6ILTRECK0P_PnF-36" value="Admin" style="shape=umlActor;verticalLabelPosition=bottom;verticalAlign=top;html=1;outlineConnect=0;fillColor=#e1d5e7;strokeColor=#9673a6;" vertex="1" parent="0HPqzP6ILTRECK0P_PnF-80">
          <mxGeometry x="20" y="590" width="60" height="120" as="geometry" />
        </mxCell>
        <mxCell id="0HPqzP6ILTRECK0P_PnF-47" value="SuperAdmin" style="shape=umlActor;verticalLabelPosition=bottom;verticalAlign=top;html=1;outlineConnect=0;fillColor=#e1d5e7;strokeColor=#9673a6;" vertex="1" parent="0HPqzP6ILTRECK0P_PnF-80">
          <mxGeometry x="15" y="810" width="70" height="120" as="geometry" />
        </mxCell>
        <mxCell id="0HPqzP6ILTRECK0P_PnF-65" value="" style="endArrow=block;endSize=16;endFill=0;html=1;rounded=0;strokeWidth=1;" edge="1" parent="0HPqzP6ILTRECK0P_PnF-80">
          <mxGeometry width="160" relative="1" as="geometry">
            <mxPoint x="49.57000000000001" y="790" as="sourcePoint" />
            <mxPoint x="49.57000000000001" y="740" as="targetPoint" />
          </mxGeometry>
        </mxCell>
      </root>
    </mxGraphModel>
  </diagram>
</mxfile>
